#N canvas 0 70 1276 730 10;
#X obj 92 458 gemhead;
#X obj 61 488 translateXYZ;
#X obj 36 431 unpack s f f;
#X obj 54 535 sphere 0.1;
#X obj 51 513 color 1 0 0;
#X obj 34 377 mass2D bola 100;
#X obj 62 24 bng 15 250 50 0 empty empty empty 17 7 0 10 -262144 -1
-1;
#X obj 64 67 metro 10;
#X obj 401 84 bng 15 250 50 0 empty empty empty 17 7 0 10 -262144 -1
-1;
#X obj 98 208 iLine2D bola 4 4 -4 4 100 1 0 1 1 1;
#X obj 83 185 iLine2D bola -4 4 -4 -4 100 1 0 1 1 1;
#X obj 73 161 iLine2D bola 4 -4 4 4 100 1 0 1 1;
#X obj 325 257 gemkeyname;
#X symbolatom 337 294 10 0 0 0 - - -;
#X obj 301 323 sel %;
#X obj 359 324 sel ';
#X obj 390 390 float;
#X floatatom 368 464 5 0 0 0 - - -;
#X obj 292 391 float;
#X obj 342 391 - 0.2;
#X obj 437 389 + 0.2;
#X msg 72 332 reset;
#X obj 189 393 gemhead;
#X obj 189 416 translateXYZ;
#X obj 189 437 color 1 0 0;
#X obj 189 459 rectangle 1 0.1;
#X msg 243 356 -4;
#X msg 242 307 0;
#X msg 61 304 force2D 0.3 -0.1 1;
#X msg 264 579 setX1 \$1;
#X floatatom 397 556 5 0 0 0 - - -;
#X msg 344 590 setX2 \$1;
#X obj 306 556 - 1;
#X obj 357 553 + 1;
#X obj 403 126 iAmbient2D bola 0 0 5 5;
#X obj 132 -2 loadbang;
#X floatatom 162 360 5 0 0 0 - - -;
#X obj 158 264 moses -4.5;
#X obj 435 322 sel &;
#X obj 188 621 iSeg2D bola -1 -3.8 1 -3.8 1 1 0 0 0 0;
#X obj 525 217 gemhead;
#X obj 522 255 world_light;
#X obj 448 444 moses 4;
#X msg 478 406 4;
#X obj 302 436 moses -4;
#X msg 301 483 -4;
#X obj 662 196 gemwin;
#X msg 704 101 destroy;
#X msg 621 141 create \, 1;
#X obj 767 121 tgl 15 0 empty empty empty 17 7 0 10 -262144 -1 -1 1
1;
#X msg 717 147 lighting \$1;
#X msg 727 177 fullscreen \$1;
#X connect 0 0 1 0;
#X connect 1 0 4 0;
#X connect 2 1 1 1;
#X connect 2 2 1 2;
#X connect 2 2 36 0;
#X connect 4 0 3 0;
#X connect 5 0 2 0;
#X connect 6 0 7 0;
#X connect 6 0 34 0;
#X connect 7 0 5 0;
#X connect 7 0 9 0;
#X connect 7 0 10 0;
#X connect 7 0 11 0;
#X connect 7 0 39 0;
#X connect 8 0 34 0;
#X connect 12 1 13 0;
#X connect 13 0 14 0;
#X connect 13 0 15 0;
#X connect 13 0 38 0;
#X connect 14 0 18 0;
#X connect 15 0 16 0;
#X connect 16 0 20 0;
#X connect 17 0 16 1;
#X connect 17 0 18 1;
#X connect 17 0 23 1;
#X connect 17 0 32 0;
#X connect 17 0 33 0;
#X connect 18 0 19 0;
#X connect 19 0 44 0;
#X connect 20 0 42 0;
#X connect 21 0 5 0;
#X connect 22 0 23 0;
#X connect 23 0 24 0;
#X connect 24 0 25 0;
#X connect 26 0 23 2;
#X connect 27 0 17 0;
#X connect 28 0 5 0;
#X connect 29 0 39 0;
#X connect 30 0 31 0;
#X connect 31 0 39 0;
#X connect 32 0 29 0;
#X connect 33 0 30 0;
#X connect 35 0 6 0;
#X connect 35 0 26 0;
#X connect 35 0 27 0;
#X connect 35 0 40 0;
#X connect 35 0 48 0;
#X connect 35 0 49 0;
#X connect 36 0 37 0;
#X connect 37 0 21 0;
#X connect 38 0 34 0;
#X connect 40 0 41 0;
#X connect 42 0 17 0;
#X connect 42 1 43 0;
#X connect 43 0 17 0;
#X connect 44 0 45 0;
#X connect 44 1 17 0;
#X connect 45 0 17 0;
#X connect 47 0 46 0;
#X connect 48 0 46 0;
#X connect 49 0 50 0;
#X connect 49 0 51 0;
#X connect 50 0 46 0;
#X connect 51 0 46 0;
